{
  "accessors": [
    {
      "bufferView": 2,
      "componentType": 5126,
      "count": 1577,
      "max": [
        26.559761047363281,
        26.507356643676758,
        59.217849731445312
      ],
      "min": [
        -26.559764862060547,
        -26.507356643676758,
        -0.72151690721511841
      ],
      "type": "VEC3"
    },
    {
      "bufferView": 2,
      "byteOffset": 18924,
      "componentType": 5126,
      "count": 1577,
      "max": [
        1,
        0.99802684783935547,
        1
      ],
      "min": [
        -1,
        -0.99802690744400024,
        -1
      ],
      "type": "VEC3"
    },
    {
      "bufferView": 3,
      "componentType": 5126,
      "count": 1577,
      "max": [
        0.99842458963394165,
        1,
        0.030133472755551338,
        1
      ],
      "min": [
        -1,
        -1,
        -0.030133474618196487,
        -1
      ],
      "type": "VEC4"
    },
    {
      "bufferView": 1,
      "componentType": 5126,
      "count": 1577,
      "max": [
        1.0100001096725464,
        1
      ],
      "min": [
        0.00098663568496704102,
        0
      ],
      "type": "VEC2"
    },
    {
      "bufferView": 0,
      "componentType": 5125,
      "count": 6024,
      "max": [
        1576
      ],
      "min": [
        0
      ],
      "type": "SCALAR"
    },
    {
      "bufferView": 2,
      "byteOffset": 37848,
      "componentType": 5126,
      "count": 1055,
      "max": [
        23.760107040405273,
        23.713226318359375,
        39.803604125976562
      ],
      "min": [
        -23.760110855102539,
        -23.713224411010742,
        16.816617965698242
      ],
      "type": "VEC3"
    },
    {
      "bufferView": 2,
      "byteOffset": 50508,
      "componentType": 5126,
      "count": 1055,
      "max": [
        0.99949866533279419,
        0.99950939416885376,
        0.99724006652832031
      ],
      "min": [
        -0.99949866533279419,
        -0.99950927495956421,
        -0.99724042415618896
      ],
      "type": "VEC3"
    },
    {
      "bufferView": 3,
      "byteOffset": 25232,
      "componentType": 5126,
      "count": 1055,
      "max": [
        0.63130617141723633,
        0.94855380058288574,
        0.99689960479736328,
        1
      ],
      "min": [
        -1,
        -1,
        -0.99724394083023071,
        -1
      ],
      "type": "VEC4"
    },
    {
      "bufferView": 1,
      "byteOffset": 12616,
      "componentType": 5126,
      "count": 1055,
      "max": [
        1.0100001096725464,
        0.67693066596984863
      ],
      "min": [
        0.010000079870223999,
        0.29306933283805847
      ],
      "type": "VEC2"
    },
    {
      "bufferView": 0,
      "byteOffset": 24096,
      "componentType": 5125,
      "count": 2280,
      "max": [
        1054
      ],
      "min": [
        0
      ],
      "type": "SCALAR"
    },
    {
      "bufferView": 2,
      "byteOffset": 63168,
      "componentType": 5126,
      "count": 1052,
      "max": [
        24.250457763671875,
        24.202604293823242,
        6.2027921676635742
      ],
      "min": [
        -24.250457763671875,
        -24.202606201171875,
        0
      ],
      "type": "VEC3"
    },
    {
      "bufferView": 2,
      "byteOffset": 75792,
      "componentType": 5126,
      "count": 1052,
      "max": [
        1,
        0.99802696704864502,
        1
      ],
      "min": [
        -1,
        -0.99802684783935547,
        -1
      ],
      "type": "VEC3"
    },
    {
      "bufferView": 3,
      "byteOffset": 42112,
      "componentType": 5126,
      "count": 1052,
      "max": [
        0.99802690744400024,
        1,
        1,
        1
      ],
      "min": [
        -1,
        -1,
        -0.23810331523418427,
        1
      ],
      "type": "VEC4"
    },
    {
      "bufferView": 1,
      "byteOffset": 21056,
      "componentType": 5126,
      "count": 1052,
      "max": [
        0.99000000953674316,
        0.9701848030090332
      ],
      "min": [
        0.0099999997764825821,
        0.0099999997764825821
      ],
      "type": "VEC2"
    },
    {
      "bufferView": 0,
      "byteOffset": 33216,
      "componentType": 5125,
      "count": 2988,
      "max": [
        1051
      ],
      "min": [
        0
      ],
      "type": "SCALAR"
    }
  ],
  "asset": {
    "extras": {
      "author": "RoboHoloclone12 (https://sketchfab.com/RoboHoloclone12)",
      "license": "CC-BY-4.0 (http://creativecommons.org/licenses/by/4.0/)",
      "source": "https://sketchfab.com/models/792d4c0017b0495dbe4173379dbfc3c6",
      "title": "Paper Cup (Perfect)"
    },
    "generator": "Sketchfab-3.36.2",
    "version": "2.0"
  },
  "bufferViews": [
    {
      "buffer": 0,
      "byteLength": 45168,
      "byteOffset": 0,
      "name": "floatBufferViews",
      "target": 34963
    },
    {
      "buffer": 0,
      "byteLength": 29472,
      "byteOffset": 45168,
      "byteStride": 8,
      "name": "floatBufferViews",
      "target": 34962
    },
    {
      "buffer": 0,
      "byteLength": 88416,
      "byteOffset": 74640,
      "byteStride": 12,
      "name": "floatBufferViews",
      "target": 34962
    },
    {
      "buffer": 0,
      "byteLength": 58944,
      "byteOffset": 163056,
      "byteStride": 16,
      "name": "floatBufferViews",
      "target": 34962
    }
  ],
  "buffers": [
    {
      "byteLength": 222000,
      "uri": "scene.bin"
    }
  ],
  "images": [
    {
      "uri": "textures/Material_24_baseColor.jpeg"
    },
    {
      "uri": "textures/Material_71_baseColor.jpeg"
    },
    {
      "uri": "textures/Material_23_baseColor.jpeg"
    }
  ],
  "materials": [
    {
      "doubleSided": true,
      "emissiveFactor": [
        0,
        0,
        0
      ],
      "name": "Material_23",
      "pbrMetallicRoughness": {
        "baseColorFactor": [
          1,
          1,
          1,
          1
        ],
        "baseColorTexture": {
          "index": 2,
          "texCoord": 0
        },
        "metallicFactor": 0,
        "roughnessFactor": 0.59999999999999998
      }
    },
    {
      "doubleSided": true,
      "emissiveFactor": [
        0,
        0,
        0
      ],
      "name": "Material_71",
      "pbrMetallicRoughness": {
        "baseColorFactor": [
          1,
          1,
          1,
          1
        ],
        "baseColorTexture": {
          "index": 1,
          "texCoord": 0
        },
        "metallicFactor": 0,
        "roughnessFactor": 0.59999999999999998
      }
    },
    {
      "doubleSided": true,
      "emissiveFactor": [
        0,
        0,
        0
      ],
      "name": "Material_24",
      "pbrMetallicRoughness": {
        "baseColorFactor": [
          1,
          1,
          1,
          1
        ],
        "baseColorTexture": {
          "index": 0,
          "texCoord": 0
        },
        "metallicFactor": 0,
        "roughnessFactor": 0.59999999999999998
      }
    }
  ],
  "meshes": [
    {
      "name": "Cup_Material #23_0",
      "primitives": [
        {
          "attributes": {
            "NORMAL": 1,
            "POSITION": 0,
            "TANGENT": 2,
            "TEXCOORD_0": 3
          },
          "indices": 4,
          "material": 0,
          "mode": 4
        }
      ]
    },
    {
      "name": "Label_Material #71_0",
      "primitives": [
        {
          "attributes": {
            "NORMAL": 6,
            "POSITION": 5,
            "TANGENT": 7,
            "TEXCOORD_0": 8
          },
          "indices": 9,
          "material": 1,
          "mode": 4
        }
      ]
    },
    {
      "name": "Lid_Material #24_0",
      "primitives": [
        {
          "attributes": {
            "NORMAL": 11,
            "POSITION": 10,
            "TANGENT": 12,
            "TEXCOORD_0": 13
          },
          "indices": 14,
          "material": 2,
          "mode": 4
        }
      ]
    }
  ],
  "nodes": [
    {
      "children": [
        1
      ],
      "name": "RootNode (gltf orientation matrix)",
      "rotation": [
        -0.70710678118654746,
        -0,
        -0,
        0.70710678118654757
      ]
    },
    {
      "children": [
        2
      ],
      "name": "RootNode (model correction matrix)"
    },
    {
      "children": [
        3
      ],
      "matrix": [
        1,
        0,
        0,
        0,
        0,
        0,
        1,
        0,
        0,
        -1,
        0,
        0,
        0,
        0,
        0,
        1
      ],
      "name": "6a536fce931746a19138459790f1c0c7.fbx"
    },
    {
      "children": [
        4,
        6,
        8
      ],
      "name": "RootNode"
    },
    {
      "children": [
        5
      ],
      "matrix": [
        1,
        0,
        0,
        0,
        0,
        2.2204460492503131e-16,
        -1,
        0,
        0,
        1.0762548446655273,
        2.3897658178240796e-16,
        0,
        0.0078525543212890625,
        0,
        0.051831543445587158,
        1
      ],
      "name": "Cup"
    },
    {
      "mesh": 0,
      "name": "Cup_Material #23_0"
    },
    {
      "children": [
        7
      ],
      "matrix": [
        1.0025912523269653,
        0,
        0,
        0,
        0,
        2.2261997852423339e-16,
        -1.0025912523269653,
        0,
        0,
        1.0762548446655273,
        2.3897658178240796e-16,
        0,
        0.0078525543212890625,
        1.3828983306884766,
        0.051831543445587158,
        1
      ],
      "name": "Label"
    },
    {
      "mesh": 1,
      "name": "Label_Material #71_0"
    },
    {
      "children": [
        9
      ],
      "matrix": [
        1.1352992057800293,
        0,
        0,
        0,
        0,
        2.5208706361912843e-16,
        -1.1352992057800293,
        0,
        0,
        1.8692268133163452,
        4.1505172927810312e-16,
        0,
        -0.0076684951782226562,
        61.160491943359375,
        0.031321339309215546,
        1
      ],
      "name": "Lid"
    },
    {
      "mesh": 2,
      "name": "Lid_Material #24_0"
    }
  ],
  "samplers": [
    {
      "magFilter": 9729,
      "minFilter": 9987,
      "wrapS": 10497,
      "wrapT": 10497
    }
  ],
  "scene": 0,
  "scenes": [
    {
      "name": "OSG_Scene",
      "nodes": [
        0
      ]
    }
  ],
  "textures": [
    {
      "sampler": 0,
      "source": 0
    },
    {
      "sampler": 0,
      "source": 1
    },
    {
      "sampler": 0,
      "source": 2
    }
  ]
}

